# xmcd
#
# Track frame offsets:
#	150
#	20971
#	36813
#	58529
#	74999
#	95066
#	114397
#	130207
#	147402
#	166478
#	179334
#	195868
#	211506
#	233019
#	255506
#
# Disc length: 3553 seconds
#
# Revision: 1
# Processed by: cddbd v1.5.2PL0 Copyright (c) Steve Scherf et al.
# Submitted via: audiograbber 1.83.01
#
DISCID=d80ddf0f
DTITLE=Billy Boy Arnold - Sings Big Bill Broonzy
DYEAR=2012
DGENRE=Blues
TTITLE0=Sweet Honey Bee
TTITLE1=Going Back To Arkansas
TTITLE2=Girl In The Valley a.k.a. Water Coast Blues
TTITLE3=Key To The Highway
TTITLE4=Looking Up At Down
TTITLE5=Rider Rider Blues
TTITLE6=Willie Mae Blues
TTITLE7=Cell No. 13 Blues
TTITLE8=I Want You By My Side
TTITLE9=San Antonio Blues
TTITLE10=Living On Easy Street
TTITLE11=When I Get To Thinkin'
TTITLE12=I Love My Whiskey
TTITLE13=It Was Just A Dream
TTITLE14=Just Got To Hold You Tight
EXTD=
EXTT0=
EXTT1=
EXTT2=
EXTT3=
EXTT4=
EXTT5=
EXTT6=
EXTT7=
EXTT8=
EXTT9=
EXTT10=
EXTT11=
EXTT12=
EXTT13=
EXTT14=
PLAYORDER=
